<?xml version="1.0" encoding="UTF-8"?>
<svg version="1.1" xmlns="http://www.w3.org/2000/svg" width="510" height="510">
<path d="M0 0 C168.3 0 336.6 0 510 0 C510 168.3 510 336.6 510 510 C341.7 510 173.4 510 0 510 C0 341.7 0 173.4 0 0 Z " fill="#000000" transform="translate(0,0)"/>
<path d="M0 0 C5.01880463 2.83920948 8.56442966 6.75005505 10.61328125 12.16015625 C11.87330572 19.17392076 10.25147026 24.18818219 6.61328125 30.16015625 C4.39941169 32.87008812 1.953146 35.28979072 -0.55859375 37.72265625 C-1.24101135 38.39941406 -1.92342896 39.07617188 -2.62652588 39.7734375 C-4.78730518 41.91200197 -6.96163098 44.03615629 -9.13671875 46.16015625 C-10.61290058 47.61625397 -12.08817065 49.07327664 -13.5625 50.53125 C-17.16011955 54.08499991 -20.76994855 57.62590275 -24.38671875 61.16015625 C-21.55983894 63.04474279 -19.1723128 64.04061102 -16.01171875 65.22265625 C-0.88990486 71.58305547 9.78268777 82.72667959 21.14672852 94.22705078 C23.82092558 96.93052109 26.51365653 99.61448785 29.20898438 102.296875 C30.92169234 104.01581245 32.63332114 105.73582597 34.34375 107.45703125 C35.14572311 108.25606873 35.94769623 109.0551062 36.77397156 109.87835693 C37.51266983 110.62973938 38.2513681 111.38112183 39.01245117 112.15527344 C39.6616301 112.80985535 40.31080902 113.46443726 40.97966003 114.13885498 C44.70801962 118.75200391 45.17499973 123.55181923 45.05078125 129.3046875 C44.1850863 134.95489291 41.22669451 139.0939962 36.78515625 142.60546875 C31.83990937 145.48014478 26.19846897 146.46715512 20.61328125 145.16015625 C14.32234206 141.96123322 9.63712814 137.51481168 4.81640625 132.4453125 C3.34807991 130.93904002 1.87931611 129.43319388 0.41015625 127.92773438 C-1.86424776 125.57913307 -4.13351764 123.22599962 -6.39453125 120.86450195 C-18.30670179 108.45815273 -28.67933701 98.56034432 -46.83984375 98.09765625 C-62.0754163 98.88400838 -71.24286434 106.82138862 -81.3515625 117.1328125 C-82.64008949 118.4210287 -83.92995724 119.70790506 -85.22108459 120.99351501 C-87.90874966 123.67842764 -90.58208201 126.37659507 -93.24536133 129.08569336 C-96.63628829 132.53338671 -100.05745074 135.94905729 -103.48955441 139.35570621 C-106.15283816 142.00498751 -108.8010357 144.66895199 -111.44491768 147.33758354 C-112.700153 148.60176195 -113.95946386 149.86190875 -115.22312737 151.11766243 C-126.21140619 162.06928823 -133.63771369 172.17387608 -133.70800781 188.23022461 C-133.30965009 210.54094844 -110.68291983 227.09754718 -96.21679688 241.62524414 C-93.85199244 244.00117634 -91.49913778 246.3885974 -89.14859009 248.77862263 C-86.86176479 251.09814498 -84.56069768 253.40347051 -82.26171875 255.7109375 C-81.43430176 256.55586258 -80.60688477 257.40078766 -79.75439453 258.27131653 C-69.99013194 268.00007293 -59.55922049 275.01310481 -45.51171875 275.59765625 C-30.97056205 275.1677763 -21.61242197 267.80570292 -11.95703125 257.75 C-10.57074637 256.33355961 -9.18401384 254.91755723 -7.796875 253.50195312 C-5.65029829 251.29968809 -3.50792462 249.09372046 -1.37353516 246.87963867 C0.71219498 244.7207713 2.81380619 242.57838581 4.91796875 240.4375 C5.85284622 239.45450172 5.85284622 239.45450172 6.80661011 238.4516449 C11.844079 233.35812335 17.99235702 228.4696983 25.38522339 227.97447205 C31.51156763 228.27901249 35.74589882 230.18368862 40.05078125 234.65234375 C43.63887919 238.75011469 44.79896318 241.92829911 45.05078125 247.28515625 C45.11136719 248.17460937 45.17195312 249.0640625 45.234375 249.98046875 C43.68490388 257.91298126 37.01923035 264.20622039 31.44921875 269.72265625 C30.43923325 270.73694702 30.43923325 270.73694702 29.40884399 271.77172852 C27.99222713 273.1903719 26.57187481 274.60529426 25.14794922 276.01660156 C23.00396304 278.14459146 20.87638153 280.28802904 18.75 282.43359375 C0.71183963 300.50260182 -19.00726956 314.31279812 -45.38671875 314.66015625 C-54.12012948 314.57283153 -62.09202616 312.77518655 -70.38671875 310.16015625 C-71.26328125 309.90621094 -72.13984375 309.65226562 -73.04296875 309.390625 C-87.68276212 304.43749491 -99.70043745 292.60695362 -110.3203125 281.85546875 C-111.57545696 280.6011568 -112.83142194 279.34766546 -114.08815002 278.09494019 C-116.69336057 275.49255685 -119.28975356 272.88179341 -121.87963867 270.26416016 C-125.16760487 266.94202824 -128.47534676 263.64044768 -131.78974819 260.34471321 C-134.37718621 257.76793576 -136.95465231 255.18136114 -139.52928352 252.59179306 C-140.74431682 251.37164973 -141.96207478 250.15421226 -143.1828289 248.93979263 C-153.74633139 238.41060288 -163.17372392 227.38089951 -168.38671875 213.16015625 C-168.77859375 212.10054687 -169.17046875 211.0409375 -169.57421875 209.94921875 C-175.5929301 191.01535596 -173.71014257 170.62592659 -165.13671875 152.84765625 C-157.55371391 138.50448327 -145.33217116 126.94754382 -133.9453125 115.5859375 C-132.96828451 114.60823311 -131.99140476 113.63038056 -131.0146637 112.65238953 C-128.98510584 110.62137187 -126.95378808 108.59213637 -124.92114258 106.56420898 C-122.33705975 103.98583774 -119.75751532 101.40297995 -117.17927456 98.8187685 C-115.16918219 96.80503676 -113.15668239 94.79372445 -111.1434803 92.78310204 C-109.73537798 91.37597522 -108.32926067 89.96686291 -106.92320251 88.55769348 C-105.61628197 87.25550117 -105.61628197 87.25550117 -104.28295898 85.92700195 C-103.52844955 85.17328812 -102.77394012 84.41957428 -101.99656677 83.64302063 C-99.8895115 81.63848533 -97.75184853 79.72841358 -95.55232239 77.82873535 C-91.47242709 74.28209479 -87.64230417 70.53708046 -83.84082031 66.69604492 C-83.13406662 65.98622467 -82.42731293 65.27640442 -81.69914246 64.54507446 C-80.1796061 63.01843626 -78.66120171 61.49067066 -77.14383698 59.96187401 C-74.74211285 57.54263721 -72.33675622 55.12706658 -69.93035889 52.71247864 C-63.09429315 45.85205519 -56.26398938 38.98591576 -49.43798828 32.11547852 C-45.25089274 27.90163267 -41.05896495 23.69264465 -36.86400604 19.48662758 C-35.26889745 17.88530899 -33.67568914 16.28209516 -32.08441925 14.6769619 C-29.86581517 12.43918349 -27.64115761 10.2075945 -25.41503906 7.97729492 C-24.75938461 7.31287888 -24.10373016 6.64846283 -23.4282074 5.96391296 C-22.82003677 5.35704651 -22.21186615 4.75018005 -21.58526611 4.12492371 C-21.06101673 3.59753192 -20.53676735 3.07014013 -19.99663162 2.52676678 C-14.48796589 -2.14938726 -6.65370089 -2.34131864 0 0 Z " fill="#FCFCFB" transform="translate(301.38671875,55.83984375)"/>
<path d="M0 0 C1.16213013 -0.0071553 2.32426025 -0.01431061 3.52160645 -0.02168274 C5.43620415 -0.02571609 5.43620415 -0.02571609 7.38948059 -0.02983093 C8.74638543 -0.03609705 10.10328856 -0.04274398 11.46018982 -0.04974365 C15.91813464 -0.07077222 20.37607976 -0.08114622 24.83406067 -0.09111023 C26.3702121 -0.0951585 27.90636335 -0.09927545 29.44251442 -0.10346031 C36.66133169 -0.12251086 43.88013875 -0.13674109 51.09897631 -0.14507228 C59.42351093 -0.1548388 67.74777922 -0.18114339 76.07222003 -0.22157317 C82.51142034 -0.25177006 88.95054447 -0.26654461 95.3898142 -0.26985329 C99.23323436 -0.2722001 103.07636997 -0.28111168 106.91971397 -0.30631447 C110.53871751 -0.3296625 114.15725052 -0.33380179 117.77630997 -0.32355309 C119.72855927 -0.32282474 121.68078502 -0.34186948 123.63293457 -0.36161804 C130.70909733 -0.31984423 135.423821 0.28178288 141.41609192 4.14717102 C146.79275763 9.80681913 147.94094237 14.42046044 147.79109192 22.10029602 C147.2242131 26.70618644 145.63404979 29.82514983 142.41609192 33.14717102 C140.13215788 34.8282641 138.00694308 35.92507141 135.41609192 37.14717102 C134.42609192 37.64217102 134.42609192 37.64217102 133.41609192 38.14717102 C131.60973624 38.24908631 129.79961432 38.28665213 127.99040222 38.29434204 C126.26189026 38.305075 126.26189026 38.305075 124.49845886 38.31602478 C123.22781586 38.31871368 121.95717285 38.32140259 120.64802551 38.32417297 C119.30112024 38.33043714 117.9542167 38.3370839 116.60731506 38.34408569 C112.17639879 38.36514126 107.74548212 38.37549224 103.31452942 38.38545227 C101.78859565 38.38949984 100.26266206 38.39361676 98.73672867 38.39780235 C91.56489436 38.41686051 84.39307037 38.43108793 77.22121561 38.43941432 C68.94874057 38.44917728 60.67653378 38.47546934 52.40415323 38.51591522 C46.00743555 38.54611408 39.61079458 38.56088692 33.21400702 38.56419533 C29.39516342 38.56654236 25.57660618 38.57545638 21.7578392 38.60065651 C18.16100902 38.62400731 14.56465226 38.62814273 10.96776581 38.61789513 C9.02743464 38.61716684 7.08712715 38.63621076 5.14689636 38.65596008 C-2.83873365 38.60853629 -8.46837463 37.77852407 -14.64250183 32.33076477 C-15.32506042 31.46644836 -15.32506042 31.46644836 -16.02140808 30.58467102 C-16.49449402 30.00588196 -16.96757996 29.4270929 -17.45500183 28.83076477 C-20.42688705 24.39864529 -20.00059398 19.25958644 -19.58390808 14.14717102 C-17.75352898 8.31283763 -13.41048377 4.6795238 -8.58390808 1.14717102 C-5.46118251 0.1062625 -3.27657819 0.01383803 0 0 Z " fill="#B2B0AF" transform="translate(246.5839080810547,223.8528289794922)"/>
<path d="M0 0 C5.50340735 2.80362261 10.01703172 7.05109517 12 13 C12.30859375 15.3828125 12.30859375 15.3828125 12.4375 18.125 C12.49808594 19.01445312 12.55867187 19.90390625 12.62109375 20.8203125 C11.07162263 28.75282501 4.4059491 35.04606414 -1.1640625 40.5625 C-1.83738617 41.23869385 -2.51070984 41.9148877 -3.20443726 42.61157227 C-4.62105412 44.03021565 -6.04140644 45.44513801 -7.46533203 46.85644531 C-9.60931821 48.98443521 -11.73689972 51.12787279 -13.86328125 53.2734375 C-31.90144162 71.34244557 -51.62055081 85.15264187 -78 85.5 C-93.88377966 85.34117928 -109.16361093 80.30173121 -122 71 C-120 70 -120 70 -116.375 70.1875 C-111.52195179 70.24044234 -107.97501594 68.72067758 -104 66 C-99.78317753 61.67220852 -97.92147949 57.62708254 -97.6875 51.625 C-97.77051526 47.1195357 -98.96321322 43.98870745 -101 40 C-98.13444648 41.12885442 -95.31334952 42.30654039 -92.5 43.5625 C-82.71375353 47.58185123 -72.86196921 46.72556609 -62.984375 43.4609375 C-55.73528659 39.91229998 -50.10579488 34.35482706 -44.5703125 28.58984375 C-43.18402762 27.17340336 -41.79729509 25.75740098 -40.41015625 24.34179688 C-38.26357954 22.13953184 -36.12120587 19.93356421 -33.98681641 17.71948242 C-31.90108627 15.56061505 -29.79947506 13.41822956 -27.6953125 11.27734375 C-27.07206085 10.62201157 -26.4488092 9.96667938 -25.80667114 9.29148865 C-18.53319506 1.93707953 -10.46988776 -2.97584332 0 0 Z " fill="#E8A13F" transform="translate(334,285)"/>
<path d="M0 0 C11.4658926 3.43976778 11.4658926 3.43976778 16 5.6875 C16.9075 6.12449219 17.815 6.56148438 18.75 7.01171875 C27.07360313 12.10392307 34.13357249 18.82446311 41 25.69921875 C41.80236084 26.49729446 42.60472168 27.29537018 43.43139648 28.11763 C45.10766982 29.78820959 46.7813959 31.4613488 48.45263672 33.13696289 C51.01271136 35.7002272 53.58592691 38.24978838 56.16015625 40.79882812 C57.7950802 42.43148157 59.42922325 44.06491747 61.0625 45.69921875 C62.21395508 46.83685921 62.21395508 46.83685921 63.38867188 47.9974823 C64.09701172 48.71205093 64.80535156 49.42661957 65.53515625 50.1628418 C66.46920288 51.09594429 66.46920288 51.09594429 67.42211914 52.04789734 C71.11877723 56.62128198 71.56051206 61.44753532 71.4375 67.14453125 C70.57180505 72.79473666 67.61341326 76.93383995 63.171875 80.4453125 C58.22662812 83.31998853 52.58518772 84.30699887 47 83 C40.70906081 79.80107697 36.02384689 75.35465543 31.203125 70.28515625 C29.73479866 68.77888377 28.26603486 67.27303763 26.796875 65.76757812 C24.52247099 63.41897682 22.25320111 61.06584337 19.9921875 58.7043457 C8.81389352 47.06231806 -1.01690255 37.1755605 -18 36 C-24.63635627 35.92907711 -29.96105933 37.501119 -35.96875 40.2578125 C-36.6390625 40.50273437 -37.309375 40.74765625 -38 41 C-38.66 40.67 -39.32 40.34 -40 40 C-26.8 26.8 -13.6 13.6 0 0 Z " fill="#E9A13F" transform="translate(275,118)"/>
<path d="M0 0 C1.32 0 2.64 0 4 0 C4.11647041 4.54144994 4.18734502 9.08251394 4.25 13.625 C4.28351563 14.91019531 4.31703125 16.19539063 4.3515625 17.51953125 C4.47471666 29.40390766 4.47471666 29.40390766 0 34 C-4.365558 36.910372 -7.79500079 37.6506249 -13 37 C-17.77585774 34.565249 -20.60117067 31.79765866 -23 27 C-23.86685626 22.57726396 -23.36181685 19.71023308 -21.3125 15.6875 C-18.28609997 12.1703324 -16.28516194 10.19494273 -11.52734375 9.7890625 C-4.62062937 9.68968531 -4.62062937 9.68968531 -2 11 C-1.90912109 9.93458984 -1.90912109 9.93458984 -1.81640625 8.84765625 C-1.73261719 7.92855469 -1.64882813 7.00945312 -1.5625 6.0625 C-1.48128906 5.14597656 -1.40007812 4.22945313 -1.31640625 3.28515625 C-1 1 -1 1 0 0 Z " fill="#F0F1F1" transform="translate(325,420)"/>
<path d="M0 0 C3.4285785 2.02008139 6.20847086 4.41694171 8 8 C8.54317573 12.9509132 8.52241949 16.89488185 6.375 21.4375 C2.75662327 25.34153805 -0.22870837 26.77858855 -5.5 27.4375 C-10.46685012 26.81664374 -13.21772903 24.65935573 -16.8125 21.3125 C-18.69632109 17.64400629 -19.22870985 14.10984671 -19 10 C-17.79801184 6.29446255 -15.75878133 3.69183004 -12.875 1.0625 C-8.5202543 -0.54686254 -4.57044532 -0.90271626 0 0 Z " fill="#EEEEEE" transform="translate(291,430)"/>
<path d="M0 0 C2.89801714 1.54149848 5.19217174 3.24036812 7 6 C7.1796875 8.70703125 7.1796875 8.70703125 7 11 C4.37690901 12.17112946 1.75171858 13.33705964 -0.875 14.5 C-1.99455078 15.00080078 -1.99455078 15.00080078 -3.13671875 15.51171875 C-4.20986328 15.98544922 -4.20986328 15.98544922 -5.3046875 16.46875 C-5.96452637 16.76201172 -6.62436523 17.05527344 -7.30419922 17.35742188 C-9 18 -9 18 -11 18 C-11 18.66 -11 19.32 -11 20 C-6.36743739 20.90834561 -3.1327102 21.52554512 1 19 C2.82619087 16.48635244 2.82619087 16.48635244 4 14 C5.32 14.33 6.64 14.66 8 15 C7.58443583 19.84824868 5.62551755 21.88036862 2 25 C-1.54216451 27.47951515 -4.75718373 27.43891203 -9 27 C-14.39350606 24.35612448 -16.61096356 21.32938898 -19 16 C-19.76901243 11.38592544 -18.6357497 8.38208085 -16.18359375 4.546875 C-12.13643214 -0.74248473 -6.20216383 -1.19420546 0 0 Z " fill="#EEEEEE" transform="translate(219,430)"/>
<path d="M0 0 C3.85544798 1.99657127 5.59805092 3.39707638 8 7 C7.83178711 9.06738281 7.83178711 9.06738281 7 11 C4.50984914 12.44646308 2.18870999 13.61997797 -0.4375 14.75 C-1.47874023 15.22373047 -1.47874023 15.22373047 -2.54101562 15.70703125 C-7.66793493 18 -7.66793493 18 -10 18 C-8.96431405 19.70735301 -8.96431405 19.70735301 -7 21 C-3.49211747 21.23753308 -3.49211747 21.23753308 0 20 C2.47648077 17.07956297 2.47648077 17.07956297 4 14 C5.32 14.33 6.64 14.66 8 15 C7.86210108 17.96482674 7.71055664 20.21234484 5.66796875 22.4765625 C0.89509194 26.44815343 -1.78637763 27.50931331 -8 27 C-11.58504673 25.65102536 -14.34273402 23.72087237 -16.9375 20.875 C-18.54686254 16.5202543 -18.90271626 12.57044532 -18 8 C-13.53949765 0.42942262 -8.46212098 -0.96042477 0 0 Z " fill="#F0F0F0" transform="translate(351,430)"/>
<path d="M0 0 C3.85544798 1.99657127 5.59805092 3.39707638 8 7 C7.83178711 9.06738281 7.83178711 9.06738281 7 11 C4.50984914 12.44646308 2.18870999 13.61997797 -0.4375 14.75 C-1.47874023 15.22373047 -1.47874023 15.22373047 -2.54101562 15.70703125 C-7.66793493 18 -7.66793493 18 -10 18 C-8.96431405 19.70735301 -8.96431405 19.70735301 -7 21 C-3.49211747 21.23753308 -3.49211747 21.23753308 0 20 C2.47648077 17.07956297 2.47648077 17.07956297 4 14 C5.32 14.33 6.64 14.66 8 15 C7.86210108 17.96482674 7.71055664 20.21234484 5.66796875 22.4765625 C0.88084773 26.46000627 -1.77935528 27.42173863 -8 27 C-12.29210768 25.16052528 -15.84626527 22.18489919 -18 18 C-18.97058508 13.61063761 -19.05153111 9.77066332 -16.71484375 5.8359375 C-11.76094236 -0.07953198 -7.61396655 -0.86416185 0 0 Z " fill="#F1F1F1" transform="translate(189,430)"/>
<path d="M0 0 C0.9796875 -0.00257813 1.959375 -0.00515625 2.96875 -0.0078125 C5.5 0.125 5.5 0.125 7.5 1.125 C7.17 2.445 6.84 3.765 6.5 5.125 C5.61957031 5.19976562 4.73914063 5.27453125 3.83203125 5.3515625 C-3.63389456 5.91497265 -3.63389456 5.91497265 -9.8125 9.625 C-12.05859193 14.28356104 -12.28041219 18.04383804 -11.5 23.125 C-10.26502538 26.08893909 -9.4622818 27.52786978 -6.75 29.2109375 C-4.03748566 30.31289645 -1.6659251 30.54171964 1.25 30.75 C2.23484375 30.82476562 3.2196875 30.89953125 4.234375 30.9765625 C4.98203125 31.02554687 5.7296875 31.07453125 6.5 31.125 C6.83 32.445 7.16 33.765 7.5 35.125 C3.75417361 37.6222176 0.83480369 37.74425767 -3.5 37.125 C-9.40228925 35.21543583 -12.973092 32.148172 -16.5 27.125 C-18.49653601 21.13539198 -18.57712301 14.40352945 -15.875 8.6875 C-11.02328322 3.45275295 -7.35373384 -0.01935193 0 0 Z " fill="#EDEDEC" transform="translate(262.5,419.875)"/>
<path d="M0 0 C2.475 0.495 2.475 0.495 5 1 C5.02505615 1.87325928 5.0501123 2.74651855 5.07592773 3.64624023 C5.17087709 6.87602552 5.27012029 10.10564154 5.37231445 13.33520508 C5.41571434 14.73489199 5.45738564 16.13463359 5.49731445 17.53442383 C5.55489445 19.54261495 5.61914 21.55061149 5.68359375 23.55859375 C5.72025146 24.76829834 5.75690918 25.97800293 5.79467773 27.22436523 C5.68938266 29.90705456 5.68938266 29.90705456 7 31 C8.68183948 31.23287008 10.3712416 31.41264166 12.0625 31.5625 C12.98160156 31.64628906 13.90070313 31.73007812 14.84765625 31.81640625 C15.91306641 31.90728516 15.91306641 31.90728516 17 32 C17 33.32 17 34.64 17 36 C15.28055699 37.71944301 13.09584777 37.29345984 10.75 37.375 C9.79609375 37.42398438 8.8421875 37.47296875 7.859375 37.5234375 C3.836438 36.78699821 2.53552122 35.16459791 0 32 C-0.56762695 28.49487305 -0.56762695 28.49487305 -0.48828125 24.51171875 C-0.48120651 23.80852005 -0.47413177 23.10532135 -0.46684265 22.3808136 C-0.43899212 20.14859773 -0.3762832 17.91894923 -0.3125 15.6875 C-0.28740451 14.16865619 -0.26459352 12.6497728 -0.24414062 11.13085938 C-0.18920007 7.41974752 -0.10299739 3.71012459 0 0 Z " fill="#F1EFEF" transform="translate(152,420)"/>
<path d="M0 0 C2.475 0.495 2.475 0.495 5 1 C5 3.97 5 6.94 5 10 C6.98 10 8.96 10 11 10 C10.67 11.65 10.34 13.3 10 15 C8.35 15 6.7 15 5 15 C5.33 20.28 5.66 25.56 6 31 C7.65 31.33 9.3 31.66 11 32 C10.505 34.475 10.505 34.475 10 37 C6.59142575 37.30987039 4.66806438 37.47222659 1.82128906 35.45996094 C-0.62643601 32.15389153 -0.50690481 29.33994121 -0.390625 25.390625 C-0.38496521 24.66381531 -0.37930542 23.93700562 -0.37347412 23.18817139 C-0.35114553 20.87476755 -0.30096048 18.5629328 -0.25 16.25 C-0.22993023 14.67840784 -0.21168029 13.10679132 -0.1953125 11.53515625 C-0.15129293 7.68950283 -0.08229375 3.84501711 0 0 Z " fill="#F4F3F2" transform="translate(231,420)"/>
<path d="M0 0 C3.38677089 2.45000447 4.78698584 3.86392446 5.5625 8 C4.8491179 11.80470451 3.88381579 13.41196019 1 16 C-3.08346933 17.26216325 -5.0273059 17.48634705 -8.875 15.5625 C-11.31351884 12.62193317 -12.018482 10.73859198 -12.2578125 6.97265625 C-12 5 -12 5 -10 2 C-6.24375652 -0.50416232 -4.43262088 -0.79153944 0 0 Z " fill="#060504" transform="translate(319,435)"/>
<path d="M0 0 C2.9375 2.0625 2.9375 2.0625 5 5 C5.63664952 9.03211364 5.69818231 11.01737304 3.3125 14.375 C0.70358296 16.20829306 -0.81896986 16.8448278 -4 17 C-7.81263347 15.93600927 -8.75011007 15.3748349 -11 12 C-11.66115702 5.05785124 -11.66115702 5.05785124 -9.4375 1.5 C-6.00863886 -0.61006839 -3.95779649 -0.62491523 0 0 Z " fill="#030302" transform="translate(289,435)"/>
<path d="M0 0 C3.96 0 7.92 0 12 0 C12.33 0.99 12.66 1.98 13 3 C13.33 2.34 13.66 1.68 14 1 C14.99 1 15.98 1 17 1 C17 3.97 17 6.94 17 10 C14.03 10 11.06 10 8 10 C8 7.69 8 5.38 8 3 C7.01 3 6.02 3 5 3 C5 5.31 5 7.62 5 10 C4.34 10 3.68 10 3 10 C3 7.69 3 5.38 3 3 C2.01 3 1.02 3 0 3 C0 2.01 0 1.02 0 0 Z " fill="#868685" transform="translate(476,18)"/>
<path d="M0 0 C0.66 0.33 1.32 0.66 2 1 C-9.55 12.55 -21.1 24.1 -33 36 C-32.67 36.66 -32.34 37.32 -32 38 C-33.96466413 39.06775224 -35.96855359 40.06553465 -38 41 C-38.66 40.67 -39.32 40.34 -40 40 C-26.8 26.8 -13.6 13.6 0 0 Z " fill="#E49A1F" transform="translate(275,118)"/>
<path d="M0 0 C0.66 0.33 1.32 0.66 2 1 C-1.203125 8.20703125 -1.203125 8.20703125 -5 10 C-8.75 9.6875 -8.75 9.6875 -12 9 C-12.33 8.01 -12.66 7.02 -13 6 C-10.87959258 4.96966118 -8.75352092 3.95097146 -6.625 2.9375 C-5.44164062 2.36902344 -4.25828125 1.80054688 -3.0390625 1.21484375 C-2.03617187 0.81394531 -1.03328125 0.41304688 0 0 Z " fill="#0B0B0C" transform="translate(354,442)"/>
<path d="M0 0 C0.66 0.33 1.32 0.66 2 1 C0.59835218 4.3196922 -0.52807492 6.60460331 -3.3125 8.9375 C-6.62390601 10.24666051 -8.59566828 9.87087556 -12 9 C-12.33 8.01 -12.66 7.02 -13 6 C-10.87959258 4.96966118 -8.75352092 3.95097146 -6.625 2.9375 C-5.44164062 2.36902344 -4.25828125 1.80054688 -3.0390625 1.21484375 C-2.03617188 0.81394531 -1.03328125 0.41304688 0 0 Z " fill="#0A090A" transform="translate(192,442)"/>
<path d="M0 0 C0.66 0.33 1.32 0.66 2 1 C2 1.66 2 2.32 2 3 C-4.435 5.97 -4.435 5.97 -11 9 C-11.33 7.68 -11.66 6.36 -12 5 C-8.46639715 0.14129609 -5.88807041 -0.66657401 0 0 Z " fill="#080808" transform="translate(188,435)"/>
<path d="M0 0 C0.66 0.33 1.32 0.66 2 1 C2 1.66 2 2.32 2 3 C-4.93 5.97 -4.93 5.97 -12 9 C-11 3 -11 3 -9.375 1.125 C-6.13259827 -0.4108745 -3.54250417 -0.26240772 0 0 Z " fill="#070706" transform="translate(350,435)"/>
<path d="M0 0 C0.99 0.99 1.98 1.98 3 3 C-3.93 5.97 -3.93 5.97 -11 9 C-11 4 -11 4 -9.4375 1.6875 C-6.10654682 -0.61854451 -3.9675271 -0.504958 0 0 Z " fill="#060607" transform="translate(217,435)"/>
<path d="M0 0 C2.64 0 5.28 0 8 0 C7.01 0.33 6.02 0.66 5 1 C5 3.64 5 6.28 5 9 C4.34 9 3.68 9 3 9 C3 6.69 3 4.38 3 2 C2.01 2 1.02 2 0 2 C0 1.34 0 0.68 0 0 Z " fill="#ACABAA" transform="translate(476,19)"/>
<path d="M0 0 C0.99 0 1.98 0 3 0 C3 2.97 3 5.94 3 9 C0.90250005 6.64031256 0.03094296 5.45383006 -0.1875 2.25 C-0.125625 1.5075 -0.06375 0.765 0 0 Z " fill="#B5B3B2" transform="translate(490,19)"/>
</svg>
