<?xml version="1.0" encoding="UTF-8"?>
<svg version="1.1" xmlns="http://www.w3.org/2000/svg" width="225" height="225">
<path d="M0 0 C74.25 0 148.5 0 225 0 C225 74.25 225 148.5 225 225 C150.75 225 76.5 225 0 225 C0 150.75 0 76.5 0 0 Z " fill="#8035B2" transform="translate(0,0)"/>
<path d="M0 0 C0 3.63 0 7.26 0 11 C6.6 11 13.2 11 20 11 C24 23 24 23 28 35 C30.26397084 29.9557141 32.04535361 24.91974069 33.625 19.625 C35.86927481 12.13072519 35.86927481 12.13072519 37 11 C38.85287502 10.92773498 40.70833878 10.9161878 42.5625 10.9375 C43.57441406 10.94652344 44.58632812 10.95554687 45.62890625 10.96484375 C46.41136719 10.97644531 47.19382813 10.98804687 48 11 C49.1483058 14.41584072 50.29321208 17.83281142 51.4375 21.25 C51.76298828 22.21808594 52.08847656 23.18617187 52.42382812 24.18359375 C52.73642578 25.11816406 53.04902344 26.05273438 53.37109375 27.015625 C53.65911865 27.87446289 53.94714355 28.73330078 54.24389648 29.61816406 C54.91538891 31.73346278 55.49077539 33.84071282 56 36 C56.23710693 35.27820557 56.47421387 34.55641113 56.71850586 33.81274414 C57.78840239 30.56163243 58.86288718 27.31205569 59.9375 24.0625 C60.31068359 22.92619141 60.68386719 21.78988281 61.06835938 20.61914062 C61.42607422 19.53955078 61.78378906 18.45996094 62.15234375 17.34765625 C62.48226318 16.34742432 62.81218262 15.34719238 63.15209961 14.31665039 C64 12 64 12 65 11 C67.69654854 10.92680379 70.36691458 10.90757463 73.0625 10.9375 C74.20041992 10.94426758 74.20041992 10.94426758 75.36132812 10.95117188 C77.24091871 10.9629932 79.12046899 10.98092922 81 11 C78.67471523 19.62393677 75.48056334 27.90163186 72.27441406 36.22583008 C71.3656143 38.58688397 70.46370685 40.95049199 69.5625 43.31445312 C68.98738081 44.81525814 68.41187448 46.31591487 67.8359375 47.81640625 C67.56615082 48.52358292 67.29636414 49.23075958 67.0184021 49.95936584 C65.11537783 54.88462217 65.11537783 54.88462217 64 56 C61.46950598 56.07313567 58.96695163 56.09247527 56.4375 56.0625 C55.72658203 56.05798828 55.01566406 56.05347656 54.28320312 56.04882812 C52.52209987 56.03700864 50.76103964 56.01907263 49 56 C48.73521851 55.10692139 48.73521851 55.10692139 48.46508789 54.19580078 C47.66613825 51.50496153 46.86435473 48.81497491 46.0625 46.125 C45.78470703 45.18785156 45.50691406 44.25070313 45.22070312 43.28515625 C44.81948242 41.94130859 44.81948242 41.94130859 44.41015625 40.5703125 C44.16402588 39.74289551 43.91789551 38.91547852 43.66430664 38.06298828 C43.0473112 35.96834343 43.0473112 35.96834343 42 34 C38.535 44.89 38.535 44.89 35 56 C30.05 56 25.1 56 20 56 C18.28789392 51.62291928 16.5778501 47.24514834 14.87304688 42.86523438 C14.2922269 41.37485291 13.71020032 39.88494109 13.12695312 38.39550781 C12.28980472 36.25707769 11.45698106 34.11700743 10.625 31.9765625 C10.23127197 30.97491562 10.23127197 30.97491562 9.82958984 29.95303345 C8 25.22774341 8 25.22774341 8 23 C5.36 23 2.72 23 0 23 C0.10991566 26.10489399 0.24053415 29.20857994 0.375 32.3125 C0.4059375 33.19357422 0.436875 34.07464844 0.46875 34.98242188 C0.50742188 35.82998047 0.54609375 36.67753906 0.5859375 37.55078125 C0.6173584 38.33106689 0.6487793 39.11135254 0.68115234 39.9152832 C0.89587889 42.30155768 0.89587889 42.30155768 3 45 C4.134375 45.0825 5.26875 45.165 6.4375 45.25 C7.613125 45.4975 8.78875 45.745 10 46 C12.02081728 49.52013333 13 51.93552213 13 56 C10.08999203 57.45500399 7.4910667 57.20897384 4.25 57.25 C3.03828125 57.27578125 1.8265625 57.3015625 0.578125 57.328125 C-4.24100361 56.88619618 -7.46778801 55.19172044 -11.25 52.25 C-15.73128752 46.48834462 -15.25511533 39.51366105 -15.125 32.5625 C-15.11597656 31.64017578 -15.10695313 30.71785156 -15.09765625 29.76757812 C-15.0742766 27.51144191 -15.04150916 25.25586316 -15 23 C-17.90779657 22.95646454 -17.90779657 22.95646454 -21 24 C-22.43148463 26.38468685 -23.29445056 28.25900558 -24.17578125 30.84375 C-24.55901802 31.87018616 -24.55901802 31.87018616 -24.94999695 32.9173584 C-25.76090554 35.10379669 -26.5371998 37.30071334 -27.3125 39.5 C-28.11303514 41.69601397 -28.92030877 43.88945829 -29.7285614 46.0826416 C-30.22885557 47.44816363 -30.72317042 48.81589356 -31.21101379 50.18591309 C-32.8955265 54.8955265 -32.8955265 54.8955265 -34 56 C-36.5327765 56.07320163 -39.03103918 56.09227569 -41.5625 56.0625 C-44.016875 56.041875 -46.47125 56.02125 -49 56 C-50.98 48.74 -52.96 41.48 -55 34 C-56.43413064 36.86826128 -57.409704 39.07272843 -58.25390625 42.07421875 C-58.46853516 42.82380859 -58.68316406 43.57339844 -58.90429688 44.34570312 C-59.23010742 45.50489258 -59.23010742 45.50489258 -59.5625 46.6875 C-61.86813501 54.86813501 -61.86813501 54.86813501 -63 56 C-65.35313555 56.07271741 -67.70833668 56.08370868 -70.0625 56.0625 C-71.35285156 56.05347656 -72.64320312 56.04445312 -73.97265625 56.03515625 C-74.97167969 56.02355469 -75.97070312 56.01195312 -77 56 C-80.55684403 48.2348108 -83.72159699 40.32917669 -86.85595703 32.38671875 C-87.7569841 30.10733186 -88.66553653 27.83103167 -89.57421875 25.5546875 C-90.14890043 24.10174552 -90.72313563 22.64862684 -91.296875 21.1953125 C-91.56868591 20.51719513 -91.84049683 19.83907776 -92.12054443 19.14041138 C-93.24719724 16.26451565 -94 14.1195172 -94 11 C-88.72 11 -83.44 11 -78 11 C-75.70001092 16.93155077 -73.66984518 22.93051142 -71.71411133 28.98266602 C-70.82731444 32.25137123 -70.82731444 32.25137123 -69 35 C-68.79318604 34.30849854 -68.58637207 33.61699707 -68.37329102 32.90454102 C-67.43965276 29.78952946 -66.50114417 26.67600659 -65.5625 23.5625 C-65.23701172 22.47388672 -64.91152344 21.38527344 -64.57617188 20.26367188 C-64.26357422 19.22919922 -63.95097656 18.19472656 -63.62890625 17.12890625 C-63.34088135 16.17056885 -63.05285645 15.21223145 -62.75610352 14.22485352 C-62 12 -62 12 -61 11 C-59.14712498 10.92773498 -57.29166122 10.9161878 -55.4375 10.9375 C-54.42558594 10.94652344 -53.41367188 10.95554687 -52.37109375 10.96484375 C-51.58863281 10.97644531 -50.80617187 10.98804687 -50 11 C-47.63646302 16.2191887 -45.87469701 21.42969363 -44.3125 26.9375 C-44.08755859 27.71673828 -43.86261719 28.49597656 -43.63085938 29.29882812 C-43.08322633 31.19806614 -42.54104051 33.09887345 -42 35 C-38.73578095 27.08563649 -35.84865362 19.07118524 -33 11 C-27.06 11 -21.12 11 -15 11 C-15 8.36 -15 5.72 -15 3 C-13.0636296 2.49564306 -11.12585854 1.99666126 -9.1875 1.5 C-7.56908203 1.08234375 -7.56908203 1.08234375 -5.91796875 0.65625 C-3 0 -3 0 0 0 Z " fill="#FCFAFC" transform="translate(119,84)"/>
</svg>
